<svg width="64" height="58" viewBox="0 0 64 58" fill="none" xmlns="http://www.w3.org/2000/svg">
<path d="M49.6636 0.253029C52.9316 1.15693 57.625 4.84209 59.9716 8.35342C60.9451 9.83096 62.0402 12.0038 62.9267 14.2462C63.622 16.0019 63.6394 16.1931 63.2222 16.7319C62.7877 17.2882 61.8664 17.3751 61.4492 16.8884C61.2927 16.7319 60.7713 15.6021 60.2672 14.3679C58.8591 10.9608 57.8857 9.43115 55.6607 7.20615C53.5052 5.05069 51.1759 3.38194 49.5767 2.86045C47.9775 2.33897 45.8568 2.37373 44.5879 2.98213C42.9539 3.74697 41.4763 5.62432 41.2156 7.32783C41.1113 7.91885 41.1287 7.93623 41.9109 8.23174C42.3629 8.40557 43.4232 8.99658 44.275 9.57022C49.1943 12.786 52.9664 19.2177 52.9664 24.3456C52.9664 26.9356 52.1146 30.0298 50.9847 31.4899C50.3416 32.3591 49.1422 33.0196 48.273 33.0196C46.6043 33.0196 44.2228 31.0728 42.6757 28.3958C39.8424 23.5634 38.191 17.5663 38.191 12.1081V9.72666H37.2697C34.923 9.74405 32.3851 10.8565 30.5947 12.6644C28.5957 14.6808 27.3963 17.6706 26.475 22.8507C25.206 30.0124 24.3195 33.8192 22.9636 37.8868C20.4953 45.2745 16.7754 49.3421 8.22302 54.0528L6.17185 55.1827L7.4408 55.2349C8.97048 55.3044 14.081 54.9915 16.6363 54.6786C18.6527 54.4179 19.1568 54.5222 19.5218 55.2522C19.8174 55.8259 19.5218 56.5733 18.9308 56.7993C18.6701 56.9036 17.714 57.0601 16.8101 57.1644C15.9062 57.2513 14.7242 57.3903 14.1853 57.4425C12.1863 57.6511 1.0613 57.9987 0.678883 57.8597C0.470287 57.7728 0.209545 57.512 0.0878677 57.2687C-0.172874 56.6776 0.192162 55.0958 1.42634 51.3585C2.52146 48.1079 5.91111 39.712 6.32829 39.2427C6.97146 38.53 8.29255 39.0688 8.29255 40.0423C8.29255 40.3726 7.56247 42.389 6.6238 44.6835C4.85076 49.0292 3.19939 53.4966 3.2863 53.7052C3.33845 53.8616 6.69333 52.0886 9.24861 50.5415C14.3765 47.4647 17.3838 44.4228 19.2611 40.3899C20.8256 37.0698 22.4074 31.3161 23.5894 24.589C23.9892 22.3813 24.5281 19.7218 24.8062 18.6614C26.1968 13.3771 28.4218 10.3177 32.1939 8.50986C34.2103 7.53643 35.2185 7.29307 37.2175 7.29307H38.6777L38.7994 6.63252C38.8515 6.28486 39.1992 5.39834 39.5295 4.68565C40.3812 2.92998 41.7371 1.5915 43.5101 0.739746C44.7791 0.131348 44.9703 0.0965843 46.7781 0.0444336C48.0992 0.00967026 49.0031 0.0792007 49.6636 0.253029ZM40.6767 12.8034C40.8506 16.6972 41.7892 20.6431 43.4406 24.3978C44.8312 27.5788 46.5869 29.9255 47.8906 30.3774C48.4121 30.5513 48.5164 30.5339 48.864 30.1862C49.6289 29.4214 50.5328 26.362 50.5328 24.5021C50.5328 20.5388 47.5777 15.2022 43.7535 12.2472C42.9886 11.6562 40.9548 10.4741 40.642 10.422C40.6072 10.422 40.6246 11.4997 40.6767 12.8034Z" fill="black"/>
</svg>
