<svg width="12" height="10" viewBox="0 0 12 10" fill="none" xmlns="http://www.w3.org/2000/svg">
<path d="M4.16247 9.18106C4.06247 9.18106 3.96872 9.1653 3.88122 9.1338C3.79372 9.1028 3.71247 9.0498 3.63747 8.9748L0.41247 5.7498C0.27497 5.6123 0.20922 5.43405 0.21522 5.21505C0.22172 4.99655 0.29372 4.81855 0.43122 4.68105C0.56872 4.54355 0.74372 4.4748 0.95622 4.4748C1.16872 4.4748 1.34372 4.54355 1.48122 4.68105L4.16247 7.3623L10.5187 1.00605C10.6562 0.868555 10.8345 0.799805 11.0535 0.799805C11.272 0.799805 11.45 0.868555 11.5875 1.00605C11.725 1.14355 11.7937 1.32155 11.7937 1.54005C11.7937 1.75905 11.725 1.9373 11.5875 2.0748L4.68747 8.9748C4.61247 9.0498 4.53122 9.1028 4.44372 9.1338C4.35622 9.1653 4.26247 9.18106 4.16247 9.18106Z" fill="#0C0C0C"/>
</svg>
