<svg width="75" height="91" viewBox="0 0 75 91" fill="none" xmlns="http://www.w3.org/2000/svg">
<path d="M19.002 23.5075C19.9975 31.9671 27.6741 39.3823 37.006 39.3823C47.0148 39.3823 55.127 30.8568 55.127 21.6566C55.127 21.578 55.1216 21.5015 55.1206 21.4261C44.7952 20.0246 31.6404 27.5269 19.002 23.5075Z" fill="#010101"/>
<path d="M60.375 21.7228C60.375 9.60712 54.3103 2.12713 54.3092 2.125H19.6898C19.6898 2.125 13.625 9.61775 13.625 21.7228C13.625 33.2276 23.4595 43.9142 35.8259 44.5549C35.6814 51.2359 35.113 58.1931 33.4768 60.6029C31.1722 63.9986 23.0951 62.254 23.0951 65.875H50.9081C50.9081 62.2529 42.8278 63.9986 40.5233 60.6029C38.887 58.1931 38.3186 51.2369 38.1741 44.5549C50.5373 43.9152 60.375 33.2276 60.375 21.7228ZM37 41.7074C26.5939 41.7074 18.0344 33.4401 16.9251 24.0083C16.8419 23.3239 16.7989 22.6353 16.7966 21.9459C16.7966 11.4803 22.0379 5.00544 22.0379 5.00544H51.9611C51.9621 5.00862 57.1099 11.3687 57.196 21.6888C57.1971 21.7738 57.2034 21.8578 57.2034 21.9459C57.2034 32.2023 48.1584 41.7074 37 41.7074Z" fill="#010101"/>
<path d="M27.9627 44.3242C27.0694 45.2937 26.5967 46.7227 26.5967 48.1668C26.5967 49.6109 27.0694 51.04 27.9627 52.0094C28.6566 51.987 29.947 51.8215 31.237 51.4991C32.2008 51.2581 33.1558 50.9176 33.8478 50.534C33.6017 50.2672 33.4738 49.9153 33.3807 49.5197C33.3581 49.4229 33.3386 49.3254 33.3221 49.2274L30.7348 49.9666L30.5158 49.2003L33.2424 48.4214C33.2394 48.3367 33.2373 48.2518 33.2373 48.1668C33.2373 48.0818 33.2394 47.9969 33.2424 47.9122L30.5158 47.1332L30.7348 46.367L33.3221 47.1062C33.3386 47.0082 33.3581 46.9107 33.3807 46.8138C33.4738 46.4183 33.6017 46.0664 33.8478 45.7996C33.1558 45.416 32.2009 45.0755 31.237 44.8345C29.9469 44.5121 28.6566 44.3466 27.9627 44.3242H27.9627ZM46.038 44.3242C45.3441 44.3466 44.0537 44.5121 42.7637 44.8345C41.7998 45.0755 40.8449 45.416 40.1529 45.7996C40.399 46.0664 40.5269 46.4183 40.62 46.8139C40.6423 46.9086 40.6616 47.0065 40.6785 47.1062L43.2658 46.367L43.4848 47.1332L40.7583 47.9122C40.7613 47.9969 40.7633 48.0818 40.7633 48.1668C40.7633 48.2518 40.7613 48.3367 40.7583 48.4214L43.4848 49.2003L43.2658 49.9666L40.6785 49.2274C40.6621 49.3254 40.6425 49.4229 40.62 49.5198C40.5269 49.9153 40.399 50.2672 40.1529 50.534C40.8449 50.9176 41.7998 51.2581 42.7637 51.4991C44.0537 51.8215 45.3441 51.987 46.038 52.0094C46.9313 51.0399 47.404 49.6109 47.404 48.1668C47.404 46.7227 46.9313 45.2936 46.038 44.3242ZM37.0003 45.909C36.3995 45.909 35.7974 45.9529 35.3199 46.0359C34.8425 46.119 34.4849 46.2873 34.4487 46.3235C34.3655 46.4067 34.2358 46.659 34.1565 46.9963C34.0771 47.3336 34.0342 47.7506 34.0342 48.1668C34.0342 48.5829 34.0771 49 34.1565 49.3373C34.2358 49.6746 34.3655 49.9269 34.4487 50.0101C34.4849 50.0463 34.8425 50.2146 35.3199 50.2977C35.7974 50.3807 36.3995 50.4246 37.0003 50.4246C37.6011 50.4246 38.2033 50.3807 38.6807 50.2977C39.1581 50.2146 39.5157 50.0463 39.552 50.0101C39.6351 49.9269 39.7649 49.6746 39.8442 49.3373C39.9236 49 39.9665 48.5829 39.9665 48.1668C39.9665 47.7506 39.9236 47.3336 39.8442 46.9963C39.7649 46.659 39.6351 46.4067 39.552 46.3235C39.5157 46.2873 39.1581 46.119 38.6807 46.0359C38.2033 45.9529 37.6011 45.909 37.0003 45.909Z" fill="#961623"/>
<path d="M5.696 75.72H6.752L8.352 79.752L9.968 75.72H11.04L9.056 80.568L11.232 85.704L15.344 75.64H16.56L11.744 87H10.752L8.368 81.384L5.968 87H4.992L0.192 75.64H1.392L5.52 85.704L7.68 80.568L5.696 75.72ZM17.9344 87V78.664H19.0224V87H17.9344ZM17.9344 76.92V75.32H19.0224V76.92H17.9344ZM28.4268 87H27.3388V82.344C27.3388 81.3627 27.1948 80.648 26.9068 80.2C26.6188 79.7413 26.1654 79.512 25.5468 79.512C25.1201 79.512 24.6988 79.6187 24.2828 79.832C23.8668 80.0347 23.4988 80.3173 23.1788 80.68C22.8694 81.032 22.6454 81.4373 22.5068 81.896V87H21.4188V78.664H22.4108V80.552C22.6348 80.1467 22.9281 79.7947 23.2908 79.496C23.6534 79.1867 24.0641 78.9467 24.5228 78.776C24.9814 78.6053 25.4561 78.52 25.9468 78.52C26.4054 78.52 26.7948 78.6053 27.1148 78.776C27.4348 78.9467 27.6908 79.192 27.8828 79.512C28.0748 79.8213 28.2134 80.2 28.2987 80.648C28.3841 81.0853 28.4268 81.576 28.4268 82.12V87ZM34.3469 87.16C33.7495 87.16 33.1949 87.048 32.6829 86.824C32.1709 86.5893 31.7282 86.2747 31.3549 85.88C30.9815 85.4747 30.6882 85.0107 30.4749 84.488C30.2722 83.9653 30.1709 83.4053 30.1709 82.808C30.1709 82.0293 30.3469 81.3147 30.6989 80.664C31.0615 80.0133 31.5575 79.496 32.1869 79.112C32.8162 78.7173 33.5309 78.52 34.3309 78.52C35.1522 78.52 35.8669 78.7173 36.4749 79.112C37.0935 79.5067 37.5789 80.0293 37.9309 80.68C38.2829 81.32 38.4589 82.024 38.4589 82.792C38.4589 82.8773 38.4589 82.9627 38.4589 83.048C38.4589 83.1227 38.4535 83.1813 38.4429 83.224H31.3069C31.3602 83.8213 31.5255 84.3547 31.8029 84.824C32.0909 85.2827 32.4589 85.6507 32.9069 85.928C33.3655 86.1947 33.8615 86.328 34.3949 86.328C34.9389 86.328 35.4509 86.1893 35.9309 85.912C36.4215 85.6347 36.7629 85.272 36.9549 84.824L37.8989 85.08C37.7282 85.4747 37.4669 85.832 37.1149 86.152C36.7629 86.472 36.3469 86.7227 35.8669 86.904C35.3975 87.0747 34.8909 87.16 34.3469 87.16ZM31.2749 82.44H37.4349C37.3922 81.832 37.2269 81.2987 36.9389 80.84C36.6615 80.3813 36.2935 80.024 35.8349 79.768C35.3869 79.5013 34.8909 79.368 34.3469 79.368C33.8029 79.368 33.3069 79.5013 32.8589 79.768C32.4109 80.024 32.0429 80.3867 31.7549 80.856C31.4775 81.3147 31.3175 81.8427 31.2749 82.44ZM44.6335 89.032V86.184H39.3055V85.224L44.9855 77.864H45.7215V85.192H47.1295V86.184H45.7215V89.032H44.6335ZM40.4575 85.192H44.7455V79.576L40.4575 85.192ZM48.363 75.64L52.075 81.752L55.819 75.64H57.035L52.635 82.776V87H51.515V82.744L47.131 75.64H48.363ZM60.5801 87.16C59.9828 87.16 59.4281 87.048 58.9161 86.824C58.4148 86.5893 57.9775 86.2747 57.6041 85.88C57.2415 85.4747 56.9588 85.016 56.7561 84.504C56.5535 83.9813 56.4521 83.432 56.4521 82.856C56.4521 82.2587 56.5535 81.704 56.7561 81.192C56.9588 80.6693 57.2468 80.2107 57.6201 79.816C57.9935 79.4107 58.4308 79.096 58.9321 78.872C59.4441 78.6373 59.9988 78.52 60.5961 78.52C61.1935 78.52 61.7428 78.6373 62.2441 78.872C62.7455 79.096 63.1828 79.4107 63.5561 79.816C63.9295 80.2107 64.2175 80.6693 64.4201 81.192C64.6228 81.704 64.7241 82.2587 64.7241 82.856C64.7241 83.432 64.6228 83.9813 64.4201 84.504C64.2175 85.016 63.9295 85.4747 63.5561 85.88C63.1935 86.2747 62.7561 86.5893 62.2441 86.824C61.7428 87.048 61.1881 87.16 60.5801 87.16ZM57.5561 82.872C57.5561 83.4907 57.6895 84.056 57.9561 84.568C58.2335 85.0693 58.6015 85.4693 59.0601 85.768C59.5188 86.056 60.0255 86.2 60.5801 86.2C61.1348 86.2 61.6415 86.0507 62.1001 85.752C62.5588 85.4533 62.9268 85.048 63.2041 84.536C63.4815 84.0133 63.6201 83.448 63.6201 82.84C63.6201 82.2213 63.4815 81.656 63.2041 81.144C62.9268 80.632 62.5588 80.2267 62.1001 79.928C61.6415 79.6293 61.1348 79.48 60.5801 79.48C60.0255 79.48 59.5188 79.6347 59.0601 79.944C58.6121 80.2533 58.2495 80.664 57.9721 81.176C57.6948 81.6773 57.5561 82.2427 57.5561 82.872ZM66.4638 83.56V78.664H67.5518V83.368C67.5518 84.3173 67.7118 85.0267 68.0318 85.496C68.3624 85.9653 68.8478 86.2 69.4878 86.2C69.9144 86.2 70.3251 86.1093 70.7198 85.928C71.1251 85.736 71.4824 85.4693 71.7918 85.128C72.1011 84.776 72.3358 84.3707 72.4958 83.912V78.664H73.5838V85.688C73.5838 85.8373 73.6158 85.9493 73.6798 86.024C73.7438 86.088 73.8398 86.1253 73.9678 86.136V87C73.8398 87.0107 73.7384 87.016 73.6638 87.016C73.5891 87.0267 73.5198 87.032 73.4558 87.032C73.2424 87.0107 73.0558 86.9253 72.8958 86.776C72.7464 86.6267 72.6664 86.4453 72.6558 86.232L72.6238 85.112C72.2611 85.752 71.7651 86.2533 71.1358 86.616C70.5171 86.9787 69.8451 87.16 69.1198 87.16C68.2451 87.16 67.5838 86.856 67.1358 86.248C66.6878 85.64 66.4638 84.744 66.4638 83.56Z" fill="#010101"/>
</svg>
