<svg width="82" height="91" viewBox="0 0 82 91" fill="none" xmlns="http://www.w3.org/2000/svg">
<path d="M15.472 73.576L12.56 85H9.808L8.256 79C8.224 78.8827 8.18133 78.7067 8.128 78.472C8.08533 78.2373 8.032 77.9813 7.968 77.704C7.91467 77.4267 7.86667 77.1653 7.824 76.92C7.78133 76.664 7.74933 76.4667 7.728 76.328C7.71733 76.4667 7.68533 76.664 7.632 76.92C7.58933 77.1653 7.54133 77.4267 7.488 77.704C7.43467 77.9707 7.38133 78.2267 7.328 78.472C7.27467 78.7067 7.232 78.888 7.2 79.016L5.664 85H2.912L0 73.576H2.384L3.84 79.816C3.88267 79.9973 3.93067 80.2213 3.984 80.488C4.03733 80.744 4.09067 81.016 4.144 81.304C4.19733 81.5813 4.24533 81.8533 4.288 82.12C4.34133 82.3867 4.37867 82.616 4.4 82.808C4.42133 82.6053 4.45333 82.376 4.496 82.12C4.53867 81.8533 4.58667 81.5867 4.64 81.32C4.69333 81.0427 4.74133 80.7867 4.784 80.552C4.83733 80.3067 4.88533 80.1147 4.928 79.976L6.592 73.576H8.88L10.544 79.976C10.576 80.1147 10.6187 80.3067 10.672 80.552C10.7253 80.7867 10.7787 81.0427 10.832 81.32C10.8853 81.5973 10.9333 81.8693 10.976 82.136C11.0187 82.392 11.0507 82.616 11.072 82.808C11.104 82.5413 11.152 82.2267 11.216 81.864C11.28 81.4907 11.3493 81.1173 11.424 80.744C11.5093 80.3707 11.5787 80.0613 11.632 79.816L13.088 73.576H15.472ZM19.1008 76.264V85H16.7168V76.264H19.1008ZM17.9168 72.84C18.2688 72.84 18.5728 72.9253 18.8288 73.096C19.0848 73.256 19.2128 73.56 19.2128 74.008C19.2128 74.4453 19.0848 74.7493 18.8288 74.92C18.5728 75.0907 18.2688 75.176 17.9168 75.176C17.5541 75.176 17.2448 75.0907 16.9888 74.92C16.7434 74.7493 16.6208 74.4453 16.6208 74.008C16.6208 73.56 16.7434 73.256 16.9888 73.096C17.2448 72.9253 17.5541 72.84 17.9168 72.84ZM26.5518 76.104C27.4904 76.104 28.2424 76.36 28.8078 76.872C29.3731 77.3733 29.6558 78.184 29.6558 79.304V85H27.2718V79.896C27.2718 79.2667 27.1598 78.7973 26.9358 78.488C26.7118 78.168 26.3544 78.008 25.8638 78.008C25.1384 78.008 24.6424 78.2587 24.3758 78.76C24.1091 79.2507 23.9758 79.96 23.9758 80.888V85H21.5918V76.264H23.4158L23.7358 77.384H23.8638C24.0558 77.0853 24.2904 76.8453 24.5677 76.664C24.8451 76.472 25.1544 76.3333 25.4958 76.248C25.8371 76.152 26.1891 76.104 26.5518 76.104ZM35.7074 76.104C36.518 76.104 37.2114 76.2587 37.7874 76.568C38.374 76.8773 38.8274 77.3253 39.1474 77.912C39.4674 78.4987 39.6274 79.2187 39.6274 80.072V81.224H33.9954C34.0167 81.896 34.214 82.424 34.5874 82.808C34.9714 83.192 35.4994 83.384 36.1714 83.384C36.7367 83.384 37.2487 83.3307 37.7074 83.224C38.166 83.1067 38.6407 82.9307 39.1314 82.696V84.536C38.7047 84.7493 38.2514 84.904 37.7714 85C37.302 85.1067 36.7314 85.16 36.0594 85.16C35.1847 85.16 34.4114 85 33.7394 84.68C33.0674 84.3493 32.5394 83.8533 32.1554 83.192C31.7714 82.5307 31.5794 81.6987 31.5794 80.696C31.5794 79.672 31.75 78.824 32.0914 78.152C32.4434 77.4693 32.9287 76.9573 33.5474 76.616C34.166 76.2747 34.886 76.104 35.7074 76.104ZM35.7234 77.8C35.2647 77.8 34.8807 77.9493 34.5714 78.248C34.2727 78.5467 34.0967 79.0107 34.0434 79.64H37.3874C37.3874 79.288 37.3234 78.9733 37.1954 78.696C37.078 78.4187 36.8967 78.2 36.6514 78.04C36.406 77.88 36.0967 77.8 35.7234 77.8ZM56.7498 78.28L59.1338 73.576H61.7418L57.9498 80.552V85H55.5498V80.632L51.7578 73.576H54.3818L56.7498 78.28ZM70.1293 80.616C70.1293 81.3413 70.028 81.9867 69.8253 82.552C69.6333 83.1173 69.3506 83.5973 68.9773 83.992C68.6146 84.376 68.172 84.6693 67.6493 84.872C67.1266 85.064 66.5346 85.16 65.8733 85.16C65.2653 85.16 64.7 85.064 64.1773 84.872C63.6653 84.6693 63.2226 84.376 62.8493 83.992C62.476 83.5973 62.1826 83.1173 61.9693 82.552C61.7666 81.9867 61.6653 81.3413 61.6653 80.616C61.6653 79.6453 61.836 78.8293 62.1773 78.168C62.5186 77.496 63.0093 76.984 63.6493 76.632C64.2893 76.28 65.0466 76.104 65.9213 76.104C66.7426 76.104 67.468 76.28 68.0973 76.632C68.7266 76.984 69.2226 77.496 69.5853 78.168C69.948 78.8293 70.1293 79.6453 70.1293 80.616ZM64.0973 80.616C64.0973 81.192 64.156 81.6773 64.2733 82.072C64.4013 82.456 64.5986 82.7493 64.8653 82.952C65.132 83.144 65.4786 83.24 65.9053 83.24C66.332 83.24 66.6733 83.144 66.9293 82.952C67.196 82.7493 67.388 82.456 67.5053 82.072C67.6333 81.6773 67.6973 81.192 67.6973 80.616C67.6973 80.04 67.6333 79.56 67.5053 79.176C67.388 78.792 67.196 78.504 66.9293 78.312C66.6626 78.12 66.316 78.024 65.8893 78.024C65.26 78.024 64.8013 78.2427 64.5133 78.68C64.236 79.1067 64.0973 79.752 64.0973 80.616ZM80.1156 76.264V85H78.2916L77.9716 83.88H77.8436C77.6622 84.1787 77.4276 84.424 77.1396 84.616C76.8622 84.7973 76.5529 84.9307 76.2116 85.016C75.8702 85.112 75.5182 85.16 75.1556 85.16C74.5369 85.16 73.9929 85.048 73.5236 84.824C73.0542 84.6 72.6916 84.2533 72.4356 83.784C72.1796 83.3147 72.0516 82.7067 72.0516 81.96V76.264H74.4356V81.368C74.4356 81.9867 74.5476 82.456 74.7716 82.776C74.9956 83.096 75.3529 83.256 75.8436 83.256C76.3342 83.256 76.7129 83.144 76.9796 82.92C77.2569 82.696 77.4489 82.3707 77.5556 81.944C77.6729 81.5173 77.7316 80.9947 77.7316 80.376V76.264H80.1156Z" fill="#010101"/>
<path d="M51.4125 82.04H49.6925V85H46.7525V82.04H40.6525V79.94L46.9125 70.72H49.6925V79.7H51.4125V82.04ZM46.7525 77.28C46.7525 77.0533 46.7525 76.7867 46.7525 76.48C46.7658 76.16 46.7792 75.8467 46.7925 75.54C46.8058 75.22 46.8192 74.94 46.8325 74.7C46.8458 74.4467 46.8592 74.2733 46.8725 74.18H46.7925C46.6725 74.4467 46.5458 74.7067 46.4125 74.96C46.2792 75.2133 46.1192 75.4733 45.9325 75.74L43.3125 79.7H46.7525V77.28Z" fill="#961623"/>
<path d="M23.0022 23.5075C23.9978 31.9671 31.6743 39.3823 41.0063 39.3823C51.015 39.3823 59.1272 30.8568 59.1272 21.6566C59.1272 21.578 59.1219 21.5015 59.1208 21.4261C48.7954 20.0246 35.6406 27.5269 23.0022 23.5075Z" fill="#010101"/>
<path d="M64.375 21.7228C64.375 9.60712 58.3102 2.12713 58.3092 2.125H23.6898C23.6898 2.125 17.625 9.61775 17.625 21.7228C17.625 33.2276 27.4595 43.9142 39.8259 44.5549C39.6814 51.2359 39.113 58.1931 37.4767 60.6029C35.1722 63.9986 27.0951 62.254 27.0951 65.875H54.9081C54.9081 62.2529 46.8278 63.9986 44.5233 60.6029C42.887 58.1931 42.3186 51.2369 42.1741 44.5549C54.5373 43.9152 64.375 33.2276 64.375 21.7228ZM41 41.7074C30.5939 41.7074 22.0344 33.4401 20.9251 24.0083C20.8419 23.3239 20.7989 22.6353 20.7966 21.9459C20.7966 11.4803 26.0379 5.00544 26.0379 5.00544H55.9611C55.9621 5.00863 61.1099 11.3687 61.196 21.6888C61.1971 21.7738 61.2034 21.8577 61.2034 21.9459C61.2034 32.2023 52.1584 41.7074 41 41.7074Z" fill="#010101"/>
<path d="M28.2409 47.5752C26.9798 48.9438 26.3125 50.9613 26.3125 53C26.3125 55.0387 26.9798 57.0563 28.2409 58.4248C29.2206 58.3933 31.0423 58.1596 32.8635 57.7044C34.2242 57.3642 35.5724 56.8835 36.5493 56.3419C36.2019 55.9653 36.0213 55.4684 35.8899 54.91C35.8581 54.7733 35.8305 54.6357 35.8073 54.4973L32.1546 55.5409L31.8454 54.4591L35.6947 53.3594C35.6904 53.2399 35.6875 53.12 35.6875 53C35.6875 52.88 35.6904 52.7601 35.6947 52.6406L31.8454 51.5409L32.1546 50.4591L35.8073 51.5027C35.8305 51.3643 35.858 51.2266 35.8899 51.0899C36.0213 50.5316 36.2019 50.0347 36.5493 49.6581C35.5724 49.1165 34.2243 48.6358 32.8635 48.2956C31.0423 47.8404 29.2206 47.6068 28.241 47.5752H28.2409ZM53.7591 47.5752C52.7794 47.6068 50.9577 47.8404 49.1365 48.2956C47.7757 48.6358 46.4276 49.1165 45.4507 49.6581C45.7981 50.0347 45.9787 50.5316 46.1101 51.09C46.1416 51.2238 46.1688 51.3619 46.1928 51.5027L49.8454 50.4591L50.1546 51.5409L46.3053 52.6406C46.3096 52.7601 46.3125 52.88 46.3125 53C46.3125 53.12 46.3096 53.2399 46.3053 53.3594L50.1546 54.4591L49.8454 55.5409L46.1928 54.4973C46.1695 54.6357 46.142 54.7734 46.1101 54.9101C45.9787 55.4684 45.7981 55.9653 45.4507 56.3419C46.4276 56.8835 47.7757 57.3642 49.1365 57.7044C50.9577 58.1596 52.7794 58.3933 53.759 58.4248C55.0203 57.0562 55.6875 55.0387 55.6875 53C55.6875 50.9613 55.0202 48.9438 53.7591 47.5752ZM41 49.8125C40.1518 49.8125 39.3017 49.8745 38.6277 49.9917C37.9537 50.1089 37.4488 50.3466 37.3977 50.3977C37.2803 50.5151 37.0971 50.8713 36.9851 51.3476C36.8731 51.8238 36.8125 52.4125 36.8125 53C36.8125 53.5875 36.8731 54.1763 36.9851 54.6525C37.0971 55.1287 37.2803 55.4849 37.3977 55.6023C37.4488 55.6534 37.9537 55.8911 38.6277 56.0083C39.3017 56.1255 40.1518 56.1875 41 56.1875C41.8482 56.1875 42.6983 56.1255 43.3723 56.0083C44.0463 55.8911 44.5512 55.6534 44.6023 55.6023C44.7197 55.4849 44.9029 55.1287 45.0149 54.6524C45.1269 54.1763 45.1875 53.5875 45.1875 53C45.1875 52.4125 45.1269 51.8238 45.0149 51.3475C44.9029 50.8713 44.7197 50.5151 44.6023 50.3977C44.5512 50.3466 44.0463 50.1089 43.3723 49.9917C42.6983 49.8745 41.8482 49.8125 41 49.8125Z" fill="#961623"/>
</svg>
